<?xml version="1.0" encoding="UTF-8"?>
<svg id="Capa_2" data-name="Capa 2" xmlns="http://www.w3.org/2000/svg" viewBox="0 0 37.86 33.98">
  <defs>
    <style>
      .cls-1 {
        fill: #000;
      }
    </style>
  </defs>
  <g id="Capa_2-2" data-name="Capa 2">
    <g id="acriollado">
      <path class="cls-1" d="M37.53,11.59c-.56-.28-1.09-.6-1.64-.91-.72-.4-.69-.38-1.15.32-.8,1.22-1.64,2.42-2.46,3.62-.22.33-.41.31-.69.03-.4-.42-.83-.82-1.29-1.19-1.93-1.55-3.96-2.92-6.56-3.07-2.17-.12-4.02.44-5.27,2.35-.46.71-.53,1.48-.19,2.23.22.48.11.69-.32.97-2.88,1.9-4.96,4.44-6.29,7.64-1.26,3.06-.99,6.27-1.21,9.4.96.09,1.88.14,2.8.27.79.12,1.55.39,2.34.5,5.07.71,9.65-.35,13.51-3.88.27-.25.44-.26.73-.04.63.49,1.38.79,2.13.49.76-.31,1.53-.71,2.14-1.26,1.29-1.15,1.64-2.75,1.76-4.39.15-2.13-.62-4.06-1.49-5.94-.42-.91-.97-1.76-1.46-2.63.03-.04.04-.09.07-.11.08-.05.17-.09.26-.13,1.73-.84,3.19-2.01,4.38-3.52.27-.34.29-.55-.13-.76ZM13.14,25.14c.07.65-.85,3.92-1.24,4.36-.81-1.48-.06-4.06,1.24-4.36ZM17.76,25.78c-.93,1.8-4.25,4.73-5.52,4.87,1.53-2.08,3.17-3.87,5.52-4.87ZM13.03,31.53c2.46.1,4.87.19,7.22.28-.83,1.45-5.75,1.29-7.22-.28Z"/>
      <path class="cls-1" d="M27.84,7.41c-.58-.06-1.18-.11-1.75-.03-1.07.15-2.13.4-3.21.61-.24-.75-.46-1.56-.77-2.33-.67-1.65-1.44-3.25-2.92-4.36-1.33-1-2.75-1.63-4.46-1.11-.99.3-1.72.84-1.8,1.96-.03.39-.27.41-.56.43-3.02.23-5.53,1.55-7.8,3.5-1.93,1.66-2.72,4.16-4.56,5.96.37.28.69.5.99.75.3.25.58.52.86.79,3.03,2.95,6.64,4.29,10.86,3.91,1.19-.1,2.36-.3,3.21-1.3.22-.26.53-.46.83-.64.37-.22.49-.49.4-.92-.2-1.01.07-1.93.69-2.75,1.74-2.27,4.1-2.82,6.78-2.45.87.12,1.72.34,2.59.47.16.03.46-.09.5-.2.2-.61.36-1.24.47-1.87.02-.13-.21-.42-.34-.43ZM6.01,6.96c-1.15,1.34-2.34,2.72-3.49,4.06-.06-1.18,2.15-3.75,3.49-4.06ZM3.11,13.2c1.07.58,2.03,1.1,3.08,1.67-1.11.2-2.55-.57-3.08-1.67ZM2.9,12.24c1.72-.54,3.49-.57,5.28-.45-1.73.54-3.5.56-5.28.45Z"/>
    </g>
  </g>
</svg>