<?xml version="1.0" encoding="UTF-8"?>
<svg id="Capa_2" data-name="Capa 2" xmlns="http://www.w3.org/2000/svg" viewBox="0 0 27.22 31.79">
  <defs>
    <style>
      .cls-1 {
        fill: #fff;
      }
    </style>
  </defs>
  <g id="Capa_2-2" data-name="Capa 2">
    <g id="aflorado">
      <path class="cls-1" d="M12.41,31.79c-1.02-.23-2.07-.39-3.06-.71C3.98,29.32.3,24.49,0,18.86c0-.19,0-.37,0-.67,3.56,0,6.63,1.22,9.22,3.59,2.6,2.39,4.01,5.4,4.39,8.92.39-3.49,1.77-6.49,4.34-8.87,2.59-2.4,5.65-3.62,9.27-3.65.01,1.48-.19,2.86-.67,4.19-1.93,5.35-5.7,8.47-11.35,9.29-.13.02-.26.08-.39.12h-2.4Z"/>
      <path class="cls-1" d="M21.23,10.62c2.04-1.61,2.58-3.39,1.62-5.21-.98-1.85-2.69-2.31-5.43-1.47C17.11,1.43,15.7-.02,13.58,0c-2.11.02-3.53,1.5-3.77,3.94-2.8-.8-4.38-.44-5.33,1.36-.35.67-.53,1.52-.5,2.28.05,1.35.89,2.31,2.03,3.01-1.94,1.38-2.56,3.17-1.75,4.96.37.82.97,1.44,1.78,1.84,1.28.63,2.53.44,3.77-.19.2,2.41,1.59,3.92,3.65,3.99,2.16.08,3.55-1.3,3.98-3.94,2.54.9,4.37.48,5.32-1.39.35-.69.52-1.58.47-2.36-.07-1.29-.89-2.22-2-2.88ZM13.56,14.4c-2.1-.03-3.77-1.78-3.72-3.89.05-2.08,1.77-3.74,3.83-3.71,2.09.03,3.77,1.78,3.72,3.89-.05,2.08-1.77,3.74-3.83,3.71Z"/>
    </g>
  </g>
</svg>