<?xml version="1.0" encoding="UTF-8"?>
<svg id="Capa_2" data-name="Capa 2" xmlns="http://www.w3.org/2000/svg" viewBox="0 0 25.65 31.38">
  <defs>
    <style>
      .cls-1 {
        fill: #000;
      }
    </style>
  </defs>
  <g id="Capa_2-2" data-name="Capa 2">
    <g id="afrutado_citricos">
      <path class="cls-1" d="M12.98,4.86s-.63-.98-5.61.62C1.94,7.23.31,1.09.31,1.09c0,0,2.31.2,5.66-.73,3.35-.93,6.67.89,7.01,4.51Z"/>
      <path class="cls-1" d="M13.26,4.33s.73-.53,3.39,1.64c2.91,2.37,5.99-1.48,5.99-1.48,0,0-1.55-.36-3.39-1.73-1.84-1.36-4.57-.84-5.99,1.57Z"/>
      <path class="cls-1" d="M14.78,0s-3.25,3.26-1.63,8.74c0,0-.86-5.09,2.49-8.24,0,0-.55-.37-.85-.5Z"/>
      <path class="cls-1" d="M25.32,16.57c-.75-2.99-2.58-7.53-7.76-8.96-2.56-.71-2.51-1.27-3.28-1.11-1.29.28-1.68.37-2.77.08-.88-.23-1.47.4-2.82.89-2.01.72-4.6,2.2-6.83,5.32-3.05,4.25-3.92,18.04,9.94,18.58,10.98.42,15.12-8.37,13.51-14.79ZM2.79,23.91C-1.5,12.83,6.94,10.24,6.94,10.24.99,14.3,2.79,23.91,2.79,23.91Z"/>
    </g>
  </g>
</svg>