<?xml version="1.0" encoding="UTF-8"?>
<svg id="Capa_2" data-name="Capa 2" xmlns="http://www.w3.org/2000/svg" viewBox="0 0 33.7 35.04">
  <defs>
    <style>
      .cls-1 {
        fill: #000;
      }
    </style>
  </defs>
  <g id="Capa_2-2" data-name="Capa 2">
    <g id="afrutado_dulces">
      <path class="cls-1" d="M23.24,0c.36.31.73.6,1.07.92.1.1.19.24.22.38.02.1-.01.28-.09.34-1.28,1.1-2.22,2.46-2.86,4.01-.47,1.15-.73,2.36-.84,3.61-.23,2.71.24,5.33,1,7.91.19.64.41,1.28.64,1.91.08.23.06.41-.11.58-.05.05-.1.09-.13.15-.24.48-.67.57-1.14.55-.07,0-.18-.09-.21-.16-.6-1.6-1.12-3.22-1.45-4.9-.24-1.21-.36-2.45-.48-3.68-.15-1.48-.04-2.97.28-4.42.18-.8.47-1.58.71-2.37.04-.13.09-.25.11-.39-5.08,4.18-7.77,9.68-8.89,16.06.06,0,.09.02.11.02,1.58-.44,2.9.16,4.07,1.13.42.35.73.83,1.07,1.27.05.06.05.2.02.28-.2.48-.41.95-.63,1.45-.09-.11-.21-.24-.31-.37-.6-.79-1.39-1.34-2.27-1.77-.42-.2-.93-.13-1.16.15-.28.35-.32.82-.02,1.16.16.19.42.31.65.42.8.4,1.41.99,1.84,1.77.28.51.48.63,1.08.6.03.33.06.65.09.98.07.9.39,1.72.79,2.52.08.16.1.28.01.44-.34.62-.64,1.26-1.01,1.86-.45.72-1.09,1.27-1.83,1.69-1.55.86-3.23,1.05-4.96.89-1.57-.15-3.09-.51-4.52-1.18-1.61-.76-2.94-1.84-3.6-3.56-.2-.53-.33-1.11-.4-1.68-.17-1.49-.14-2.98.24-4.44.49-1.9,1.66-3.31,3.31-4.29,1.29-.76,2.73-.87,4.16-.37.39.13.72.42,1.07.64.09.06.18.13.31.22.09-.48.16-.93.27-1.36.32-1.27.62-2.55,1.01-3.8.44-1.44,1.05-2.83,1.76-4.16,1.13-2.15,2.52-4.11,4.19-5.87,1.85-1.95,3.97-3.57,6.31-4.9.12-.07.23-.15.35-.23.06,0,.11,0,.17,0Z"/>
      <path class="cls-1" d="M33.67,26.36c-.11-1.17-.42-2.29-.83-3.38-.35-.93-.81-1.79-1.47-2.55-.6-.69-1.36-1.18-2.15-1.62-1.11-.61-2.29-.84-3.53-.61-1.14.21-2.15.66-2.82,1.68-.21.32-.48.59-.74.87-.06.06-.15.12-.23.13-.45.05-.91.06-1.36.13-.41.06-.85.1-1.22.27-1.18.52-2.03,1.4-2.6,2.55-.44.91-.51,1.9-.55,2.65-.04,1.61.42,2.84,1.11,3.99.58.96,1.3,1.82,2.08,2.62.78.81,1.71,1.37,2.82,1.63,1.56.36,3.08.14,4.57-.37,1.02-.34,1.97-.82,2.88-1.4,1.41-.89,2.63-1.96,3.42-3.45.51-.98.75-2.03.64-3.13ZM30.85,23.13c-.16.32-.42.51-.78.55-.41.04-.69-.14-.92-.45-.47-.64-1.07-1.11-1.85-1.32-.55-.14-1.09-.13-1.63.03-.65.19-1.2-.44-1.09-1.06.05-.3.2-.54.5-.62.46-.12.92-.2,1.17-.25,1.84.04,3.14.73,4.15,1.97.11.13.21.26.31.39.17.23.28.47.14.75Z"/>
    </g>
  </g>
</svg>