<?xml version="1.0" encoding="UTF-8"?>
<svg id="Capa_2" data-name="Capa 2" xmlns="http://www.w3.org/2000/svg" viewBox="0 0 99.76 99.76">
  <defs>
    <style>
      .cls-1 {
        fill: none;
      }

      .cls-2 {
        fill: #432a19;
      }
    </style>
  </defs>
  <g id="Capa_1-2" data-name="Capa 1">
    <g>
      <rect class="cls-1" width="99.76" height="99.76"/>
      <g>
        <path class="cls-2" d="M73.76,31.06l-2.98-5.58c-2.03,1.53-5.01,3.46-8.92,4.93-.88.33-1.73.6-2.55.84-.95-4-2.72-7.79-5.22-11.1h-.01c-1.97-2.59-4.39-4.89-7.22-6.76-.37-.24-.97-.6-1.59-.94-1.18-.67-2.69-.43-3.56.61-1.44,1.69-2.7,3.58-3.75,5.65-.17.32-.32.64-.47.97-11.11,2.13-21.15,9.19-26.7,20.04-.27.54-.53,1.08-.78,1.63,2.9,3.08,6.38,5.73,10.36,7.76,4.89,2.51,10.07,3.84,15.22,4.12,2.04-2.56,4.35-4.92,6.92-7.06.01-2.87.34-5.72.99-8.48.33-1.44,1.13-2.66,2.22-3.52,1.1-.86,2.48-1.36,3.97-1.36h.27c1.05.05,1.85.1,2.38.16,2.58.28,5.1.83,7.55,1.64-.02-.2-.04-.39-.07-.59,2.43-.14,5.12-.47,7.89-1.11,2.5-.57,4.55-1.27,6.05-1.85ZM15.93,34.78c1.3-2.02,3.02-3.63,3.26-3.45.22.17-.47,2.54-1.72,4.57-1.33,2.16-3.14,3.88-3.42,3.74-.27-.14.45-2.62,1.88-4.86ZM21.81,48.23c-.21.21-2.46-.81-4.3-2.33-1.96-1.6-3.41-3.63-3.24-3.89.18-.25,2.53.81,4.56,2.53,1.83,1.56,3.18,3.49,2.98,3.69ZM18.78,41.01c-2.5.42-4.98.18-5.06-.12-.07-.3,2.27-1.38,4.9-1.77,2.37-.35,4.72-.11,4.74.18,0,.3-2.23,1.32-4.58,1.71Z"/>
        <path class="cls-2" d="M83.62,35.81c-1.31,2.68-3.4,6.31-6.72,9.95-.74.82-1.49,1.57-2.23,2.26-3.14-3.69-7.03-6.72-11.44-8.85h-.01c-1.01-.49-2.05-.93-3.12-1.31-2.57-.95-5.28-1.6-8.09-1.91-.52-.06-1.35-.11-2.17-.14h-.15c-1.54,0-2.92,1.04-3.27,2.56-.6,2.55-.91,5.2-.91,7.94,0,.43.01.85.03,1.27-2.18,1.7-4.19,3.59-6.01,5.66-7.02,7.91-11.27,18.33-11.27,29.73,0,.71.02,1.42.05,2.13,4.71,1.68,9.78,2.59,15.06,2.59,9.67,0,18.63-3.06,25.96-8.27,3.09,1.04,6.36,1.65,9.76,1.78h.12c1.3,0,2.46-.89,2.77-2.16.67-2.69,1.02-5.5,1.02-8.39,0-2-.17-3.95-.49-5.85-.88-5.2-2.91-10-5.81-14.14,2.48-1.46,5.12-3.25,7.69-5.41,2.31-1.94,4.1-3.78,5.36-5.19l-6.13-4.25ZM31.65,81.13h-.01c-.36,0-.93-2.99-.63-6.11.27-2.79,1.2-5.38,1.55-5.38t0,.01c.33.05.88,2.91.66,5.73-.24,2.98-1.22,5.75-1.58,5.75ZM31.97,82.62c-.24-.27,1.64-2.66,4.19-4.49,2.04-1.45,4.3-2.4,4.92-2.4.09,0,.14.02.16.05.18.29-1.63,2.58-3.89,4.25-2.16,1.6-4.58,2.63-5.23,2.63-.08,0-.13-.01-.15-.04ZM42.5,86.27c-1.08,0-2.49-.11-3.86-.41-2.92-.64-5.54-2-5.49-2.36.02-.17.76-.3,1.86-.3s2.71.14,4.28.51c2.76.66,5.22,1.96,5.11,2.28-.05.17-.81.28-1.9.28Z"/>
      </g>
    </g>
  </g>
</svg>