<?xml version="1.0" encoding="UTF-8"?>
<svg id="Capa_2" data-name="Capa 2" xmlns="http://www.w3.org/2000/svg" viewBox="0 0 33.57 34.51">
  <defs>
    <style>
      .cls-1 {
        fill: #000;
      }
    </style>
  </defs>
  <g id="Capa_2-2" data-name="Capa 2">
    <path id="boscoso" class="cls-1" d="M33.42,30.86c-4.66-1.77-9.53-2.26-14.61-2.53,0,.88-.02,1.63,0,2.38.02.58-.22.82-.8.8-3.06-.1-2.49.48-2.54-2.39,0-.2-.02-.41-.03-.6-2.26-.48-2.93-.02-3.95,1.42-.41.59-.41,1.14.13,1.56,1.01.78,2.07,1.5,3.11,2.23.29.21.62.37.86.77H.53c-.04-.07-.08-.15-.12-.22,1.97-1.65,3.95-3.29,5.92-4.94-.01-.08-.03-.16-.04-.24-2.07.48-4.13.97-6.2,1.45-.03-.04-.06-.09-.09-.13.26-.18.5-.4.78-.54,1.4-.69,2.78-1.43,4.23-2,.86-.34,1.14-.78,1.09-1.68-.08-1.38-.05-2.78-.02-4.17.02-.68-.24-.93-.91-.9-.96.04-1.92.01-3.02.01.43-1.15.8-2.15,1.19-3.14.4-1.03.86-2.05,1.21-3.1.2-.58.99-1.18.09-1.84-.04-.03,0-.2.03-.3.79-2.61,1.57-5.23,2.59-7.87.19.56.4,1.12.57,1.68.77,2.45,1.54,4.89,2.28,7.35.07.24-.08.56-.13.84-.1,0-.2,0-.3.01.57,1.32,1.14,2.64,1.8,4.17.97-2.45,1.86-4.69,2.79-7.03h-.97C14.5,7.91,15.68,3.98,16.87.05c.09-.02.18-.03.28-.05,1.42,4.52,2.83,9.03,4.29,13.68-.39-.02-.65-.04-1.06-.06.8,1.88,1.57,3.68,2.46,5.75.79-1.99,1.48-3.73,2.15-5.45-.16-.27-.48-.56-.42-.75.76-2.62,1.57-5.23,2.63-7.88,1.01,3.19,2.01,6.38,3.03,9.63-.27.03-.45.05-.7.08.9,2.14,1.78,4.23,2.74,6.5-1.1,0-2.05.03-3-.01-.68-.03-.92.22-.91.9.03,1.53-.05,3.06.04,4.58.02.4.41.91.77,1.13,1.44.86,2.93,1.63,4.41,2.43-.05.11-.09.22-.14.33ZM24.14,22.72c-1.62,0-3.06.01-4.51,0-.61,0-.89.19-.83.85.05.65.06,1.32,0,1.97-.07.71.26.88.89.93,1.45.12,2.89.31,4.33.49.6.07,1.2.18,1.92.28,0-1.39,0-2.66,0-3.94q0-1.89-1.92-1.76c-.05,0-.1.08-.16.14.08.27.15.56.29,1.05ZM10.54,21.16c-.55,0-1-.07-1.41.03-.25.06-.64.36-.65.56-.05,1.72-.03,3.45-.03,5.26,1.22-.16,2.34-.34,3.47-.46,1.16-.12,2.33-.18,3.55-.28,0-.51,0-.89,0-1.27q-.01-2.25-2.21-2.25c-1.02,0-2.05,0-3.19,0,.18-.6.3-1.02.47-1.6Z"/>
  </g>
</svg>