<?xml version="1.0" encoding="UTF-8"?>
<svg id="Capa_2" data-name="Capa 2" xmlns="http://www.w3.org/2000/svg" viewBox="0 0 30.15 30.22">
  <defs>
    <style>
      .cls-1 {
        fill: #000;
      }
    </style>
  </defs>
  <g id="Capa_2-2" data-name="Capa 2">
    <g id="cacao">
      <path class="cls-1" d="M29.37,5.07c-.41-.84-.38-1.66-.16-2.53.36-1.39-.18-1.94-1.59-1.56-.96.25-1.82.17-2.7-.23C23.32,0,21.63-.18,19.91.17c-1.53.31-3.08.61-4.54,1.15C7.66,4.15,2.26,9.15.54,17.49c-.68,3.33-.74,6.67-.06,10.02.25,1.23.85,1.98,2.12,2.15,1.35.18,2.69.38,3.91.56,1.25-.07,2.35-.08,3.45-.19,3.81-.37,7.43-1.39,10.54-3.67,4.73-3.46,7.62-8.17,9.05-13.82.64-2.51,1.03-5.02-.18-7.47ZM27.27,11.53c-1.45,5.62-4.28,10.35-9.41,13.32-4.15,2.39-8.72,2.98-13.45,2.41-.9-.11-1.43-.53-1.51-1.48-.08-1.01-.19-2.01-.25-2.6.15-5.14,1.12-9.62,4.3-13.26,3.51-4.02,7.94-6.52,13.29-7.2,1.73-.22,3.42.2,4.95,1.01.52.28,1.03.78,1.29,1.31,1.04,2.06,1.36,4.24.78,6.5Z"/>
      <path class="cls-1" d="M16.95,17.68c-1.51-1.51-2.95-2.95-4.45-4.45-.88.95-1.78,1.92-2.61,2.81,1.45,1.49,2.79,2.87,4.18,4.31.96-.89,1.93-1.78,2.89-2.67Z"/>
      <path class="cls-1" d="M20.25,14c-1.4-1.4-2.71-2.71-4.08-4.07-.93.82-1.92,1.69-2.81,2.47,1.49,1.51,2.92,2.95,4.41,4.46.83-.96,1.7-1.95,2.49-2.86Z"/>
      <path class="cls-1" d="M6.81,20.08c1.13,1.16,2.17,2.23,3.24,3.34,1.05-.78,2.11-1.57,3.13-2.33-1.38-1.39-2.69-2.71-4.06-4.1-.79,1.06-1.59,2.14-2.3,3.1Z"/>
      <path class="cls-1" d="M23.31,9.76c-1-1-1.91-1.92-2.9-2.92-1.14.81-2.23,1.59-3.32,2.37,1.33,1.32,2.58,2.56,3.9,3.86.77-1.11,1.56-2.22,2.32-3.32Z"/>
      <path class="cls-1" d="M9.01,15.64c1.07-1.14,1.99-2.11,2.78-2.94-.95-.97-1.83-1.87-2.82-2.88-.66.92-1.37,1.87-2.01,2.85-.11.17-.08.58.05.74.62.75,1.3,1.46,2,2.23Z"/>
      <path class="cls-1" d="M14.53,21.16c.77.7,1.49,1.37,2.23,2.01.12.11.4.2.52.14,1.15-.6,2.23-1.31,3.01-2.26-.93-.96-1.78-1.86-2.68-2.78-.98.92-1.94,1.83-3.08,2.91Z"/>
      <path class="cls-1" d="M15.7,9.07c-.75-.71-1.42-1.37-2.14-1.99-.15-.13-.52-.18-.67-.08-1.03.66-2.03,1.37-2.98,2.02.99,1,1.87,1.9,2.76,2.81.95-.86,1.92-1.75,3.02-2.75Z"/>
      <path class="cls-1" d="M21.14,14.44c-1.06,1.16-1.95,2.14-2.82,3.09.92.92,1.8,1.79,2.79,2.77.71-1.02,1.43-2.02,2.09-3.06.09-.14.01-.51-.12-.67-.6-.71-1.24-1.37-1.94-2.14Z"/>
      <path class="cls-1" d="M6.12,21.09c-.56.96-1.16,1.9-1.66,2.9-.3.6,0,1.62.43,1.64.59.03,1.24.05,1.76-.18.84-.36,1.6-.92,2.42-1.41-1.01-1.01-1.94-1.94-2.95-2.96Z"/>
      <path class="cls-1" d="M24.09,10.61c-.83,1.09-1.63,2.14-2.39,3.14.74.76,1.44,1.48,2.22,2.28.37-.93.75-1.79,1.08-2.68.59-1.61.57-1.61-.91-2.74Z"/>
      <path class="cls-1" d="M19.57,6.08c-1.13-1.45-1.13-1.47-2.67-.93-.9.32-1.77.69-2.72,1.06.8.81,1.51,1.53,2.24,2.26,1.05-.8,2.1-1.6,3.15-2.4Z"/>
      <path class="cls-1" d="M6.02,19.43c.82-1.05,1.63-2.1,2.34-3.01-.73-.84-1.37-1.6-2.14-2.49-.38,1.24-.67,2.33-1.07,3.38-.38,1.01-.03,1.64.87,2.13Z"/>
      <path class="cls-1" d="M10.5,24.36c.67.32,1.23.82,1.67.74,1.32-.24,2.6-.71,4-1.13-.84-.81-1.56-1.5-2.32-2.22-.98.76-2.02,1.57-3.35,2.61Z"/>
      <path class="cls-1" d="M23.84,8.92c.45-.8.9-1.45,1.17-2.17.13-.36.03-.94-.2-1.24-.22-.28-.83-.55-1.12-.44-.84.32-1.6.83-2.34,1.24.86.9,1.63,1.71,2.49,2.62Z"/>
      <path class="cls-1" d="M21.78,4.65c-.02-.05-.04-.11-.07-.16h-2.36c.45.47.74.77,1.04,1.09.52-.35.95-.64,1.39-.93Z"/>
      <path class="cls-1" d="M25.29,10.43c.09.07.18.13.36.27v-2.53c-.43.68-.72,1.13-1.09,1.71.27.21.5.38.73.56Z"/>
      <path class="cls-1" d="M4.68,19.71c-.07.61-.15,1.21-.24,2.01,1.18-1.37,1.19-1.53.24-2.01Z"/>
      <path class="cls-1" d="M8.57,25.66c.69-.08,1.25-.14,1.85-.21-.51-.87-.65-.86-1.85.21Z"/>
    </g>
  </g>
</svg>