<?xml version="1.0" encoding="UTF-8"?>
<svg id="Capa_2" data-name="Capa 2" xmlns="http://www.w3.org/2000/svg" viewBox="0 0 99.76 99.76">
  <defs>
    <style>
      .cls-1 {
        fill: none;
      }

      .cls-2 {
        fill: #432a19;
      }
    </style>
  </defs>
  <g id="Capa_1-2" data-name="Capa 1">
    <g>
      <rect class="cls-1" width="99.76" height="99.76"/>
      <g>
        <path class="cls-2" d="M83.46,19.2s-.03-.06-.06-.07c-4.01-1.2-8.22-1.93-12.57-2.13-30.38-1.44-56.1,23.47-55.58,53.88.06,3.31.42,6.54,1.05,9.68,0,.03.03.06.06.07,4.79,1.43,9.88,2.19,15.14,2.19,29.28,0,53.02-23.74,53.02-53.03,0-3.63-.37-7.17-1.06-10.59ZM35.69,75.31c-4.06,0-7.98-.59-11.68-1.69-.02,0-.04-.03-.05-.05-.49-2.42-.77-4.91-.81-7.47-.4-23.47,19.45-42.7,42.9-41.59,3.36.16,6.61.72,9.71,1.65.02,0,.04.03.05.05.53,2.63.82,5.37.82,8.17,0,22.61-18.33,40.93-40.93,40.93Z"/>
        <g>
          <polygon class="cls-1" points="43.99 48.52 50.82 55.35 53.03 53.32 46.21 46.5 43.99 48.52"/>
          <polygon class="cls-1" points="51.9 41.29 58.73 48.11 60.95 46.09 54.12 39.26 51.9 41.29"/>
          <polygon class="cls-1" points="31.84 59.63 29.62 61.66 36.45 68.49 38.66 66.46 31.84 59.63"/>
          <polygon class="cls-1" points="36.73 55.16 43.55 61.99 45.77 59.96 38.94 53.14 36.73 55.16"/>
          <path class="cls-2" d="M63.84,27.97c-1.58-.07-3.13-.03-4.66.1l2.72,2.72,3-2.74c-.35-.03-.7-.07-1.06-.08Z"/>
          <path class="cls-2" d="M69.44,38.32l3.5-3.2c-.07-1.94-.3-3.85-.67-5.69,0-.02-.02-.04-.04-.05-1.92-.57-3.92-.98-5.97-1.22l-3.64,3.33,6.83,6.83Z"/>
          <path class="cls-2" d="M70.15,39.03l2.46,2.46c.23-1.64.36-3.3.36-5,0-.01,0-.02,0-.04l-2.82,2.58Z"/>
          <path class="cls-2" d="M53.75,67.94c2.09-1.07,4.05-2.34,5.87-3.79l-8.09-8.09-5.05,4.62,7.27,7.27Z"/>
          <path class="cls-2" d="M35.57,40.1c-1.52,1.74-2.87,3.62-4.04,5.63l6.7,6.7,5.05-4.62-7.71-7.71Z"/>
          <polygon class="cls-2" points="38.94 53.14 45.77 59.96 50.82 55.35 43.99 48.52 38.94 53.14"/>
          <path class="cls-2" d="M37.63,71.83c.71,0,1.4-.03,2.1-.07l-2.57-2.57-2.72,2.48c1.05.09,2.11.16,3.19.16Z"/>
          <path class="cls-2" d="M29.62,61.66l-2.81,2.57c.06,2.08.29,4.12.69,6.1,0,.02.02.04.04.05,1.8.54,3.67.92,5.57,1.16l3.33-3.05-6.83-6.83Z"/>
          <path class="cls-2" d="M27.06,59.09c-.15,1.24-.22,2.5-.24,3.77l2.09-1.91-1.86-1.86Z"/>
          <polygon class="cls-2" points="54.12 39.26 60.95 46.09 67.22 40.35 60.4 33.52 54.12 39.26"/>
          <path class="cls-2" d="M68.52,53.66c1.49-2.68,2.64-5.57,3.4-8.61l-3.99-3.99-6.28,5.74,6.86,6.86Z"/>
          <path class="cls-2" d="M55.46,28.59c-3.15.62-6.16,1.65-8.96,3.06l6.91,6.91,6.28-5.74-4.23-4.23Z"/>
          <path class="cls-2" d="M43.54,71.33c2.54-.43,4.98-1.12,7.3-2.06l-6.58-6.58-4.89,4.47,4.17,4.17Z"/>
          <polygon class="cls-2" points="31.84 59.63 38.66 66.46 43.55 61.99 36.73 55.16 31.84 59.63"/>
          <path class="cls-2" d="M30.08,48.52c-1.03,2.21-1.84,4.54-2.39,6.97l3.44,3.44,4.89-4.47-5.94-5.94Z"/>
          <path class="cls-2" d="M43.78,33.16c-2.22,1.36-4.28,2.96-6.15,4.76l7.86,7.86,5.7-5.21-7.41-7.41Z"/>
          <path class="cls-2" d="M61.89,62.18c1.88-1.77,3.56-3.74,5.02-5.89l-7.47-7.47-5.7,5.21,8.15,8.15Z"/>
          <polygon class="cls-2" points="46.21 46.5 53.03 53.32 58.73 48.11 51.9 41.29 46.21 46.5"/>
        </g>
      </g>
    </g>
  </g>
</svg>