<?xml version="1.0" encoding="UTF-8"?>
<svg id="Capa_2" data-name="Capa 2" xmlns="http://www.w3.org/2000/svg" viewBox="0 0 99.76 99.76">
  <defs>
    <style>
      .cls-1 {
        fill: #fff;
      }

      .cls-2, .cls-3 {
        fill: none;
      }

      .cls-3 {
        stroke: #fff;
        stroke-linecap: round;
        stroke-miterlimit: 10;
        stroke-width: 3px;
      }
    </style>
  </defs>
  <g id="Capa_1-2" data-name="Capa 1">
    <g>
      <rect class="cls-2" width="99.76" height="99.76"/>
      <g>
        <path class="cls-3" d="M59.04,52.11c-1.61-3.52-3.47-8.88-3.58-15.35-.18-10.48,4.34-17.66,6.57-20.67.12-.16-.05-.36-.23-.28-4.17,1.84-13.57,7.53-20.07,17.72-4.22,6.62-5.56,12.99-6.01,17.13"/>
        <path class="cls-1" d="M48.49,64.88c.29-1.45.76-2.83,1.38-4.13-2.15-3.91-5.95-6.88-10.68-7.82-1.02-.2-2.03-.3-3.03-.3-.6,0-1.2.03-1.79.1-1.38-.76-2.9-1.33-4.53-1.66-1.03-.2-2.05-.3-3.06-.3-7.32,0-13.87,5.16-15.34,12.62-1.51,7.64,2.82,15.06,9.88,17.69.5.24,1.03.43,1.6.54l9.18,1.82c.17.03.34.05.51.07.17.04.33.09.5.12,1.03.2,2.05.3,3.06.3,5.73,0,10.97-3.17,13.69-8.12-1.61-3.4-2.11-7.2-1.37-10.96ZM35.66,56.09c1.23-.11,4.16-.21,7.3,1.41,2.46,1.27,3.92,3.02,4.63,4.01l-11.94-5.42Z"/>
        <path class="cls-1" d="M85.98,54.3c-3.02-4.51-7.98-6.95-13.03-6.95-2.99,0-6.02.86-8.7,2.65-1.38.92-2.56,2.03-3.55,3.27-.6.17-1.2.4-1.79.65-.89.38-1.75.83-2.59,1.39-2.16,1.44-3.83,3.34-5,5.46-.21.38-.4.77-.57,1.16-.2.46-.39.92-.55,1.4-1.07,3.19-1.11,6.69,0,9.97.16.47.34.94.54,1.4.18.39.36.79.58,1.17.22.4.44.79.7,1.17,3.02,4.51,7.96,6.94,13.01,6.94,2.2,0,4.41-.46,6.49-1.41.52-.18,1.04-.43,1.52-.75l7.78-5.21c.14-.1.28-.2.41-.31.15-.09.3-.17.44-.26,7.19-4.81,9.11-14.54,4.3-21.72ZM66.76,51.14c1.05-.32,6.33-2.43,11.86.39,5.34,2.73,7.15,8.19,7.54,9.27l-19.4-9.66Z"/>
      </g>
    </g>
  </g>
</svg>