<?xml version="1.0" encoding="UTF-8"?>
<svg id="Capa_2" data-name="Capa 2" xmlns="http://www.w3.org/2000/svg" viewBox="0 0 99.76 99.76">
  <defs>
    <style>
      .cls-1 {
        fill: #fff;
      }

      .cls-2 {
        fill: none;
      }
    </style>
  </defs>
  <g id="Capa_1-2" data-name="Capa 1">
    <g>
      <rect class="cls-2" width="99.76" height="99.76"/>
      <g>
        <g>
          <path class="cls-1" d="M46.28,30.45c-.9.06-2.67.47-3.15,1.53-.61,1.34,1.61,2.59,2.21,6.55.16,1.04.47,2.07.09,2.3-.67.4-2.95-1.79-4.43-4.17-1.76-2.85-1.18-4.07-2.3-6.38-1.97-4.08-6.71-6.38-10.13-7.06-4.49-.9-5.97,1.13-10.38-.43-.77-.27-4.75-1.68-4.85-3.83-.09-1.93,2.96-4.12,5.87-4.77,8.46-1.88,17.7,7.94,20.94,7.4s4.23-3.92,9.45-4.85c2.14-.38,4.19-.74,4.43-.17.25.61-1.88,1.61-4.34,4.68-1.16,1.45-2.47,3.13-1.96,4.43.36.91,1.32.85,1.7,1.96.34.99.02,2.33-.77,2.81-.66.4-1.17-.08-2.38,0Z"/>
          <path class="cls-1" d="M51.27,26.94c-.57-1.02-.73-2.26-.25-3.32.19-.42.47-.81.87-1.09,1.8-1.24,4.93.61,6.47,2.3,2.36,2.59,3.17,7.22.94,10.38-3.31,4.7-11.52,3.67-12.85,1.19-.5-.93-.19-2.36.51-3.23,1.44-1.8,4.17-.75,5.11-2.13.4-.58.54-1.71-.79-4.1Z"/>
        </g>
        <g>
          <path class="cls-1" d="M74.63,42.72c-.59.68-1.55,2.22-1.14,3.31.52,1.38,2.97.69,6.2,3.07.85.63,1.79,1.13,1.69,1.56-.19.75-3.36.82-6.08.18-3.26-.77-3.71-2.04-6.14-2.89-4.28-1.5-9.25.23-12.16,2.17-3.81,2.54-3.42,5.02-7.64,7.04-.74.35-4.55,2.18-6.14.72-1.43-1.3-.82-5,.78-7.52,4.65-7.31,18.13-6.91,20.04-9.57s.22-5.76,3.25-10.11c1.24-1.78,2.45-3.49,3.01-3.25.61.26-.19,2.47.24,6.38.2,1.85.46,3.96,1.75,4.51.9.39,1.54-.33,2.59.18.94.46,1.66,1.63,1.44,2.53-.18.75-.88.76-1.69,1.69Z"/>
          <path class="cls-1" d="M75.69,36.71c-1.12-.32-2.11-1.08-2.52-2.17-.16-.43-.24-.9-.16-1.38.4-2.15,3.92-3.05,6.2-2.95,3.5.16,7.34,2.87,8,6.68.98,5.66-5.56,10.74-8.24,9.93-1.01-.3-1.8-1.54-1.93-2.65-.25-2.29,2.42-3.48,2.11-5.12-.13-.69-.83-1.59-3.46-2.34Z"/>
        </g>
        <path class="cls-1" d="M62.67,68.87c-.99-.69-1.68-1.77-1.71-2.97,0-.48.08-.96.33-1.4,1.14-1.96,4.9-1.65,7.08-.77,3.36,1.34,6.17,5.27,5.48,9.21-1.02,5.84-9.18,8.57-11.52,6.87-.88-.64-1.23-2.1-.96-3.23.55-2.31,3.58-2.57,3.84-4.26.11-.72-.25-1.82-2.56-3.45Z"/>
        <g>
          <g>
            <path class="cls-2" d="M32.87,55.95c.54-1.22,1.16-2.02,1.7-2.73.69-.9,1.29-1.68,1.84-3.39.33-1.03.53-2.03.64-2.88-.97,1.26-1.39,2.41-1.73,3.36-.42,1.16-.9,2.48-2.37,2.89-2.32.64-4.65-1.68-4.9-1.94h0c-.52-.54-.81-1.03-1.01-1.38-.04-.07-.08-.14-.12-.2-.23.02-.73.24-.97.64-.08.14-.09.2-.05.61.04.5.11,1.25-.33,2.07-1.12,2.12-4.09,2.18-6.25,2.22-1.35.02-2.52-.06-3.49-.17.3.25.58.49.81.68,2.14,1.78,4,2.16,5.79,2.53,1.59.32,3.23.65,4.71,1.93,1.42,1.22,1.83,3.82,2.41,7.43.11.71.23,1.45.36,2.19,1.12-.42,2.31-.69,3.53-.86-1.58-3.61-2.5-8.68-.59-12.99Z"/>
            <path class="cls-2" d="M35.58,82.41c2.31,1.77,5.34,2.27,6.01,1.65.38-.35.52-1.96-.63-4.98-.59-1.54-1.26-2.45-2.04-3.25-2.81.91-3.96,2.36-6.12,3.28.73,1.28,1.63,2.41,2.78,3.29Z"/>
            <path class="cls-1" d="M26.96,71.44c-2.44,1.91-4.33,5.3-3.39,7.05,1.05,1.95,5.39,1.47,6.24,1.37-1.37-2.68-2.13-5.73-2.66-8.57-.06.05-.13.09-.19.14Z"/>
            <path class="cls-1" d="M42.36,78.55c-1.79-4.7-4.47-4.53-6.85-8.83-1.82-3.28-3.23-8.75-1.27-13.17,1.11-2.5,2.5-2.86,3.6-6.26.91-2.84,1.11-6.22.32-6.5-.45-.16-1.07.8-1.81,1.64-2.81,3.21-2.28,5.89-3.79,6.31-1.2.33-2.75-.84-3.43-1.54-.91-.94-.87-1.69-1.65-1.96-.94-.32-2.25.34-2.81,1.29-.64,1.07.08,1.82-.41,2.74-.7,1.31-2.97,1.38-4.95,1.42-4.2.08-6.49-.99-6.81-.36-.3.58,1.41,2.03,3.2,3.52,4.37,3.65,7.81,2.14,10.49,4.44,2.67,2.29,1.1,16.62,8.49,22.28,2.54,1.95,6.43,2.96,7.94,1.56,1.68-1.56.07-5.79-.25-6.61Z"/>
            <path class="cls-1" d="M62.25,82.28c-2.32-3.41-4.96-3.56-4.98-5.08-.02-1.2,1.46-2.37,2.27-2.83,1.1-.62,1.8-.4,2.23-1.07.53-.8.23-2.18-.53-2.95-.85-.85-1.72-.37-2.46-1.05-1.06-.97-.57-3.12-.13-4.98.94-3.95,2.5-5.83,1.99-6.29-.47-.42-2.24.83-4.07,2.14-4.47,3.21-3.9,6.79-6.71,8.74-1.74,1.21-7.43-.25-13.19-.19.05.09.1.19.15.28.96,1.74,1.96,2.64,3.02,3.59.82.74,1.65,1.5,2.42,2.58,3.27-.32,7.24.17,10.1,2.44,2.07,1.65,2.07,3.04,4.99,4.89,2.43,1.54,5.55,2.55,6,1.88.26-.38-.49-1.2-1.1-2.09Z"/>
          </g>
          <path class="cls-1" d="M22.82,48.5c-.44,1.17-1.33,2.14-2.53,2.48-.47.13-.98.17-1.49.03-2.26-.63-2.92-4.47-2.61-6.89.47-3.72,3.67-7.55,7.79-7.88,6.11-.5,10.97,6.96,9.87,9.75-.41,1.04-1.79,1.77-2.98,1.8-2.46.05-3.5-2.92-5.27-2.74-.75.07-1.76.73-2.78,3.46Z"/>
        </g>
      </g>
    </g>
  </g>
</svg>