<?xml version="1.0" encoding="UTF-8"?>
<svg id="Capa_2" data-name="Capa 2" xmlns="http://www.w3.org/2000/svg" viewBox="0 0 99.76 99.76">
  <defs>
    <style>
      .cls-1 {
        fill: none;
      }

      .cls-2 {
        fill: #432a19;
      }
    </style>
  </defs>
  <g id="Capa_1-2" data-name="Capa 1">
    <g>
      <rect class="cls-1" width="99.76" height="99.76"/>
      <path class="cls-2" d="M69.12,17.41v-3.32H29.66v3.32h-12.5v8.59h.04c2.21,10.78,8.07,19.86,15.92,25.26,2.81,4.02,7.12,6.91,12.13,7.85v10.52h-7.11v2.6h-2.6v13.43h28.69v-13.43h-2.6v-2.6h-7.11v-10.74c4.09-1,7.66-3.28,10.25-6.43,8.79-5.19,15.41-14.84,17.8-26.46h.04v-8.59h-13.48ZM23.28,26h6.38v12.84c-2.87-3.61-5.07-7.98-6.38-12.84ZM69.12,39.66v-13.66h7.06c-1.4,5.24-3.86,9.9-7.06,13.66Z"/>
    </g>
  </g>
</svg>