<?xml version="1.0" encoding="UTF-8"?>
<svg id="Capa_2" data-name="Capa 2" xmlns="http://www.w3.org/2000/svg" viewBox="0 0 33.57 32.74">
  <defs>
    <style>
      .cls-1 {
        fill: #000;
      }
    </style>
  </defs>
  <g id="Capa_2-2" data-name="Capa 2">
    <g id="especias">
      <path class="cls-1" d="M3.26,0c1.91.05,3.63.76,5.35,1.48.82.34,1.63.71,2.45,1.03.75.29,1.54.26,2.33.16.73-.09,1.35-.35,1.95-.81.46-.34,1.11-.46,1.7-.59.47-.1.96-.09,1.45-.08.16,0,.44.13.45.22.02.18-.06.46-.2.55-.58.39-1.21.71-1.81,1.07-.28.17-.55.36-.8.56-.44.34-.5.66-.22,1.14.23.4.52.78.74,1.19.4.73.2,1.2-.61,1.38-.45.1-.93.11-1.39.15-.72.07-.98.39-.81,1.1.22.91.51,1.8.73,2.71.07.3.14.78-.02.93-.29.28-.61-.07-.89-.26-1.09-.73-1.46-1.87-1.76-3.04-.52-2.01-2-3.16-3.69-4.13-1.21-.7-2.56-.64-3.89-.72-1.05-.06-2.08-.17-3.05-.64C.38,2.99-.08,2.41.01,1.73.12.91.81.25,1.72.12c.51-.07,1.03-.08,1.54-.12Z"/>
      <path class="cls-1" d="M10.49,14.51c-.1.79-.19,1.58-.31,2.36-.03.22-.15.45-.26.64-.81,1.35-.65,2.75-.22,4.16.77,2.52,2.18,4.72,3.41,7.02.4.76.78,1.53,1.13,2.31.17.39.38.83-.04,1.21-.47.43-1,.7-1.62.38-.35-.18-.72-.41-.96-.72-.44-.58-.9-1.18-1.16-1.85-.47-1.21-1.18-2.26-1.86-3.35-.72-1.17-1.45-2.34-2.03-3.58-.49-1.05-1.3-1.45-2.32-1.64-.74-.14-1.48-.27-2.2-.46-.92-.25-1.55-.86-1.9-1.73-.14-.34.04-.66.41-.67.35,0,.71.06,1.05.16.31.09.6.26.9.38.95.39,1.52.2,2.04-.68.07-.12.14-.25.2-.37.54-1.01,1.55-1.52,2.67-1.25.51.12.77-.06.9-.47.26-.83.47-1.68.73-2.51.11-.36.23-.72.43-1.03.11-.17.38-.29.6-.33.07-.01.27.32.28.5.04.5.01,1,.01,1.5h.12Z"/>
      <path class="cls-1" d="M29.66,16.89c-.72-.24-1.51-.5-2.3-.77-1.11-.38-2.24-.74-3.43-.47-.51.11-1.01.32-1.48.56-1.72.87-3.5,1.66-4.95,2.99-.62.57-1.3,1.07-1.99,1.55-.4.27-.88.45-1.34.63-.49.19-.91.08-1.22-.38-.31-.47-.34-1.09,0-1.54.35-.44.72-.86,1.13-1.25,1.46-1.39,3.18-2.41,4.91-3.41,1.4-.81,2.82-1.62,3.93-2.83.69-.75,1.11-1.61,1.14-2.65.02-.72.41-1.26.86-1.77.32-.36.64-.73.99-1.06.15-.14.39-.19.59-.28.09.22.28.45.25.65-.07.55-.23,1.1-.34,1.65-.13.66-.33,1.31-.34,1.98-.03,1.6.73,2.84,2.04,3.68.82.52,1.75.88,2.63,1.31.21.1.45.15.64.28.14.09.32.28.31.41-.01.14-.2.34-.36.38-.51.15-1.03.23-1.67.37Z"/>
      <path class="cls-1" d="M17.43,29.02c-.97.05-1.68.09-2.4.13-.55.03-.92-.22-1.14-.72-.27-.63-.55-1.26-.83-1.89-.15-.33-.08-.52.32-.57.73-.09,1.45-.22,2.17-.34.73-.13,1.32-.53,1.75-1.09.66-.87,1.24-1.8,1.86-2.7.54-.78,1.28-1.32,2.21-1.53.16-.04.39,0,.51.11.07.06.02.31-.03.46-.06.19-.18.36-.27.54-.42.76-.86,1.51-1.25,2.29-.38.76-.19,1.11.61,1.36.46.14.93.3,1.36.51.56.28.66.69.3,1.19-.24.34-.56.63-.87.91-.77.71-.79,1-.06,1.75.34.35.76.63,1.02,1.03.27.4.48.88.56,1.35.08.47-.28.67-.73.51-1.18-.41-2.17-1.03-2.8-2.19-.53-.97-1.54-1.07-2.29-1.09Z"/>
      <path class="cls-1" d="M30.21,7.03c1.47.1,2.45.69,3.13,1.73.14.21.24.5.23.75-.07,1.68-.57,3.19-1.82,4.38-.46.44-.97.54-1.59.26-.97-.44-1.84-.97-2.52-1.81-1-1.22-.71-3.2-.09-4.2.19-.31.56-.58.9-.7.63-.22,1.3-.31,1.75-.41Z"/>
      <path class="cls-1" d="M3.79,11.72c.74.07,1.48.1,2.21.21,1.17.19,2.36,2,1.67,3.41-.2.4-.51.68-.96.59-1.29-.27-2.06.43-2.73,1.36-.02.03-.04.05-.06.07-.76.99-.9,1.04-2.1.64-.15-.05-.33-.15-.41-.28-.45-.66-.72-1.37-.56-2.2.04-.19-.01-.4-.02-.6-.01-.46-.07-.93.4-1.23.04-.03.04-.13.05-.2.06-.51.32-.86.8-1.06.11-.05.24-.1.33-.18.39-.37.87-.46,1.39-.55Z"/>
      <path class="cls-1" d="M24.42,29.58c-.6-.02-1.16-.14-1.62-.54-.41-.36-.41-.53-.02-.9.24-.23.49-.45.66-.72.69-1.11.42-2.26-.69-2.95-.32-.2-.67-.35-1.02-.47-.28-.1-.3-.2-.2-.48.66-1.8,2.16-1.87,3.58-1.41,2.27.74,3.12,2.75,2.23,5.08-.38,1.01-.85,1.93-2.01,2.22-.3.08-.61.11-.92.16Z"/>
      <path class="cls-1" d="M17.12,10.98c-.35-.06-.71-.1-1.05-.19-.41-.11-.73-.34-.85-.78-.04-.15-.11-.29-.14-.45-.18-.91-.29-.81.63-.95.73-.12,1.39-.37,1.83-1.01.49-.72.41-1.78-.16-2.55-.5-.68-.39-.97.43-1.2,1.27-.35,2.5.29,2.82,1.56.29,1.13.46,2.29.67,3.44.08.43-.21.7-.51.93-.84.66-2.41,1.15-3.66,1.19Z"/>
      <path class="cls-1" d="M5.12,30.6c-.44-.03-.88-.04-1.08-.51-.21-.52-.28-1.06.1-1.55.47-.6,1.15-.84,1.84-1.03.36-.1.74-.14,1.09-.24.46-.13.79,0,1.03.4.36.62.74,1.22,1.11,1.84.19.31.09.51-.26.56-1.28.18-2.56.36-3.84.53Z"/>
    </g>
  </g>
</svg>