<?xml version="1.0" encoding="UTF-8"?>
<svg id="Capa_2" data-name="Capa 2" xmlns="http://www.w3.org/2000/svg" viewBox="0 0 99.76 99.76">
  <defs>
    <style>
      .cls-1 {
        fill: none;
      }

      .cls-2 {
        fill: #432a19;
      }
    </style>
  </defs>
  <g id="Capa_1-2" data-name="Capa 1">
    <g>
      <rect class="cls-1" width="99.76" height="99.76"/>
      <g>
        <path class="cls-2" d="M72.54,30.93c0-5.21-4.23-9.44-9.44-9.44-1.38,0-2.7.3-3.88.83-.65-4.57-4.59-8.09-9.34-8.09s-9.06,3.85-9.42,8.73c-1.16-.51-2.45-.79-3.8-.79-5.22,0-9.44,4.23-9.44,9.44,0,2.55,1.01,4.86,2.64,6.56-1.63,1.7-2.64,4-2.64,6.55,0,5.21,4.22,9.44,9.44,9.44,1.34,0,2.61-.28,3.77-.78.02,5.2,4.24,9.41,9.45,9.41s9.43-4.22,9.44-9.42c1.16.51,2.44.79,3.78.79,5.21,0,9.44-4.23,9.44-9.44,0-2.72-1.15-5.18-3-6.89,1.85-1.72,3-4.18,3-6.9ZM60.82,40.1c-.4,2.79-1.84,5.24-3.91,6.95-.74.61-1.56,1.12-2.44,1.52-1.4.64-2.95,1-4.59,1s-3.2-.36-4.6-1c-.88-.4-1.69-.91-2.43-1.52-1.92-1.57-3.29-3.78-3.81-6.3-.15-.73-.23-1.47-.23-2.24,0-1,.13-1.96.38-2.88.61-2.26,1.91-4.22,3.66-5.66.8-.66,1.7-1.21,2.67-1.63,1.34-.57,2.81-.89,4.36-.89,1.47,0,2.88.29,4.16.81,1.04.42,2.01,1,2.87,1.71,1.75,1.44,3.04,3.4,3.65,5.66.25.92.38,1.88.38,2.88,0,.54-.04,1.07-.12,1.59Z"/>
        <g>
          <path class="cls-2" d="M19.75,54.09c-.89,0-1.77.04-2.64.11.06,17.32,14.12,31.34,31.45,31.34.89,0,1.77-.04,2.64-.11-.06-17.32-14.12-31.34-31.45-31.34Z"/>
          <path class="cls-2" d="M82.54,51.45c-17.32.06-31.34,14.12-31.34,31.45,0,.89.04,1.77.11,2.64,17.32-.06,31.34-14.12,31.34-31.45,0-.89-.04-1.77-.11-2.64Z"/>
        </g>
      </g>
    </g>
  </g>
</svg>