<?xml version="1.0" encoding="UTF-8"?>
<svg id="Capa_2" data-name="Capa 2" xmlns="http://www.w3.org/2000/svg" viewBox="0 0 63.12 78">
  <defs>
    <style>
      .cls-1 {
        fill: #432a19;
      }
    </style>
  </defs>
  <g id="Capa_1-2" data-name="Capa 1">
    <path class="cls-1" d="M33.78,14.97c.05-1.05.11-2.16.19-3.24,3.15.72,4.52,2.41,7.48,3.45,8.26,2.9,17.42-2.04,17.26-3.24-.09-.69-3.22-.02-7.67-1.77-3.98-1.57-4.45-3.86-7.23-4.87-3.88-1.41-5.9,2.11-9.4,2.54.1-.59.22-1.1.35-1.46.95-2.6,1.43-3.34,4.33-4.47-1.98-1.06-4.51-.44-5.63,1.5-.58,1-1.05,2.39-1.25,4.27-4.52-1.15-4.53-6.53-9.49-7.54-3.98-.81-5.62,2.33-12.83,3.39-3.42.5-6.32.28-8.26,0,2.83,8.84,7.03,10.7,8.7,11.21,2.23.68,5.37.01,11.65-1.33,6.1-1.3,7.43-2.12,9.92-1.98-.08,1.26-.14,2.42-.19,3.45-.05,0-.09,0-.14,0C14.13,14.88,0,29.01,0,46.44s14.13,31.56,31.56,31.56,31.56-14.13,31.56-31.56-12.95-30.34-29.35-31.48ZM14.75,66.8c-.68.35-9.09-8.24-9.29-19.47-.27-15.5,15.27-26.51,15.78-26.11.47.38-11.96,10.32-12.39,25.37-.33,11.52,6.55,19.87,5.9,20.21Z"/>
  </g>
</svg>