<?xml version="1.0" encoding="UTF-8"?>
<svg id="Capa_2" data-name="Capa 2" xmlns="http://www.w3.org/2000/svg" viewBox="0 0 99.76 99.76">
  <defs>
    <style>
      .cls-1 {
        fill: #fff;
      }

      .cls-2 {
        fill: none;
      }
    </style>
  </defs>
  <g id="Capa_1-2" data-name="Capa 1">
    <g>
      <rect class="cls-2" width="99.76" height="99.76"/>
      <path class="cls-1" d="M83.23,83.84c.05-.12-.82-.79-2.43-1.74-1.75-1.08-4.35-2.53-7.54-3.97v-13.42l5.3.04-3.59-10.22,1.68.02-3.17-11.75-3.12-11.82-3.12,11.82-3.17,11.75,1.68-.02-2.7,7.69-4.64-13.19,2.85.03-5.38-19.93-5.29-20.04-5.29,20.04-5.38,19.93,2.85-.03-2.85,8.1-2.14-6.09,2.26.02-4.25-15.76-4.18-15.85-4.18,15.85-4.25,15.76,2.26-.02-4.82,13.7,8.1-.06v11.93c-7.59,2.3-12.29,5.14-12.2,5.42.08.27,4.65-1.92,12.2-3.75v.92h1.28c-6.57,4.25-10.85,9.36-12.46,11.21l30.52.25c-8.95-5.77-9.05-8.58-8.76-9.66.63-2.3,4.42-3.63,8.39-4.38v7.86h5.8v-8.34c5.21.37,9.91,1.23,13.97,2.25v.81h2.99c7.91,2.3,12.67,4.92,12.77,4.64ZM64.51,66.36l-.57-1.63,3.53-.03v11.12c-4.24-1.47-9.02-2.64-13.97-2.97v-6.58l11.01.08ZM34.53,64.69l2.76.02-.58,1.65,11.01-.08v6.63c-2.18.19-4.26.58-6.24,1.11-2.45.26-4.77.65-6.95,1.11v-10.44Z"/>
    </g>
  </g>
</svg>