<?xml version="1.0" encoding="UTF-8"?>
<svg id="Capa_2" data-name="Capa 2" xmlns="http://www.w3.org/2000/svg" viewBox="0 0 99.76 99.76">
  <defs>
    <style>
      .cls-1 {
        fill: #fff;
      }

      .cls-2 {
        fill: none;
      }
    </style>
  </defs>
  <g id="Capa_1-2" data-name="Capa 1">
    <g>
      <rect class="cls-2" width="99.76" height="99.76"/>
      <path class="cls-1" d="M49.88,15.86c-12.92,0-23.39,10.47-23.39,23.39,0,9.12,5.23,17,12.84,20.86v23.79l8.99-10.13v-11.21c.52.03,1.04.08,1.57.08.48,0,.95-.04,1.43-.07v11.2l8.84,10.13v-23.65c7.76-3.81,13.12-11.76,13.12-20.99,0-12.92-10.47-23.39-23.39-23.39ZM49.03,50.36l-11.66-11.66,2.65-2.65,9.01,9.01,13.76-13.76,2.65,2.65-16.41,16.41Z"/>
    </g>
  </g>
</svg>